<svg id="Layer_1" data-name="Layer 1" xmlns="http://www.w3.org/2000/svg" xmlns:xlink="http://www.w3.org/1999/xlink" viewBox="0 0 933 223"><defs><style>.cls-1{fill:url(#linear-gradient);}.cls-2{fill:#f7941d;}.cls-3{fill:#2b3990;}</style><linearGradient id="linear-gradient" x1="77.42" y1="111.7" x2="178.41" y2="111.7" gradientUnits="userSpaceOnUse"><stop offset="0" stop-color="#27aae1"/><stop offset="1" stop-color="#2b3990"/></linearGradient></defs><path class="cls-1" d="M123,140.34a175.52,175.52,0,0,1-2.2-21.4,2.1,2.1,0,0,0-2.1-2H79.55a2.12,2.12,0,0,0-2.12,2.26,104.84,104.84,0,0,0,6.46,29.6c.65,0,1.33.05,2.07.05,9,0,21.31-2.18,35.56-6.11A2.11,2.11,0,0,0,123,140.34Zm26.33,67.77a176.47,176.47,0,0,1-15.63-29.86,2.11,2.11,0,0,0-2.49-1.24,251.6,251.6,0,0,1-26.46,5.67,2,2,0,0,0,.36.66,106.31,106.31,0,0,0,41.73,27.91A2.12,2.12,0,0,0,149.37,208.11Zm26.42-91.19H133.17a2.13,2.13,0,0,0-2.13,2.21,163.8,163.8,0,0,0,1.77,17.65,2.12,2.12,0,0,0,2.75,1.69c12.89-4.2,26.84-9.53,41.07-15.78a2.14,2.14,0,0,0,1.27-2V119A2.1,2.1,0,0,0,175.79,116.92Zm.78,44.87c-10.75,4.3-21.26,8-31.36,11.19a2.1,2.1,0,0,0-1.32,2.83q1.05,2.49,2.18,4.95a0,0,0,0,1,0,0l0,.09A167.15,167.15,0,0,0,168,216a2.13,2.13,0,0,0,1.4.78c2.06.28,4.15.5,6.25.65a2.12,2.12,0,0,0,2.25-2.12V163.75A2.11,2.11,0,0,0,176.57,161.79ZM175.65,6q-3.17.24-6.25.65a2.16,2.16,0,0,0-1.4.78,166.77,166.77,0,0,0-26.78,46.78,2.15,2.15,0,0,0,1.5,2.81,170.74,170.74,0,0,0,33,4.72,2.13,2.13,0,0,0,2.21-2.13V8.13A2.12,2.12,0,0,0,175.65,6Zm-28.77,6.14A106.26,106.26,0,0,0,105.18,40a2.13,2.13,0,0,0,.61,3.33,173.67,173.67,0,0,0,22.8,9.57,2.12,2.12,0,0,0,2.66-1.3,176.7,176.7,0,0,1,18.11-36.35A2.11,2.11,0,0,0,146.88,12.15Zm29,60.05a180.23,180.23,0,0,1-36.64-5.28,2.12,2.12,0,0,0-2.57,1.48A165.33,165.33,0,0,0,131,104.27a2.14,2.14,0,0,0,2.13,2.21h42.62a2.1,2.1,0,0,0,2.11-2.11V74.3A2.1,2.1,0,0,0,175.88,72.2Zm-50.37-9.28A183.6,183.6,0,0,1,98.43,51.29a2.11,2.11,0,0,0-2.73.65,105.29,105.29,0,0,0-18.27,52.28,2.13,2.13,0,0,0,2.13,2.26h39.18a2.1,2.1,0,0,0,2.1-2,176.24,176.24,0,0,1,6-39A2.07,2.07,0,0,0,125.51,62.92ZM177.9,129v.05a442.67,442.67,0,0,1-43.58,16.49q1,4.94,2.45,10.28c1.18,4.23,2.47,8.2,3.83,11.9,11.81-3.57,24.35-8,37.3-13.34v0l.51-.23V128.81Zm-50.28,31.73c-1.27-4.28-2.28-8.38-3.1-12.27h0a158.41,158.41,0,0,1-21.05,4.91,158.63,158.63,0,0,1-17.87,1.87,71.49,71.49,0,0,0,14.62,21.68c4.42-.63,9.06-1.41,13.88-2.38,6-1.2,11.56-2.57,16.77-4C129.72,167.45,128.63,164.19,127.62,160.74Z"/><path class="cls-2" d="M182.44,19.7v6.65a13.3,13.3,0,0,1,.18,26.59h-.18V59.6a51.77,51.77,0,0,1,51.77,52.46c-.2,28.13-23.37,50.91-51.77,51.06v6.66a13.29,13.29,0,1,1,0,26.58h0V203h1.47c50.56-.15,90.09-42.21,90.2-91.71C274.23,61.35,233.32,19.87,182.44,19.7Zm66.81,52.69a21.19,21.19,0,0,0,3.59-8.6,85.22,85.22,0,0,1,13,31.48,21.63,21.63,0,0,0-8.79-3.56,1,1,0,0,1-.59-.68,77.54,77.54,0,0,0-7.28-17.54A1.25,1.25,0,0,1,249.25,72.39Zm18.19,39a13.26,13.26,0,1,1-13.22-13.24A13.23,13.23,0,0,1,267.44,111.39ZM214,55.63a54.76,54.76,0,0,0-.89,5.93c-2.75-1.35-5.45-2.85-8.29-4s-5.87-2.09-8.77-3.1a48.77,48.77,0,0,0,3.49-4.75,54.89,54.89,0,0,0,2.53-5.56c2.75.35,12.07,4.26,14,5.85A54.7,54.7,0,0,0,214,55.63ZM203.12,37.41c-.72-.2-.89-.61-1.11-1.26-.84-2.39-1.81-4.73-2.74-7.09a10.78,10.78,0,0,0-.59-1.11A84.87,84.87,0,0,1,230.1,41a21.7,21.7,0,0,0-8.67,3.66,1.37,1.37,0,0,1-1.12-.12A75.46,75.46,0,0,0,203.12,37.41ZM219.9,60.69a13.32,13.32,0,0,1,13.22-13.3,13.48,13.48,0,0,1,13.34,13.48,13.28,13.28,0,0,1-26.56-.18Zm12.31,19.86a20.28,20.28,0,0,0,11.69-3,65.85,65.85,0,0,1,5.89,14.19,59.32,59.32,0,0,0-5.59,2.55,55.76,55.76,0,0,0-4.79,3.52c-1-2.9-1.9-5.9-3.09-8.78S233.64,83.48,232.21,80.55Zm7.09,44.08a21,21,0,0,0,10.5,6.28,66.58,66.58,0,0,1-6,14.44,20.46,20.46,0,0,0-11.93-2.94A61,61,0,0,0,239.3,124.63Zm-43.6,43.56A59.26,59.26,0,0,0,213.08,161a52.21,52.21,0,0,0,.84,6.05,56.35,56.35,0,0,0,2.15,5.84,65,65,0,0,1-14.17,5.83A20.84,20.84,0,0,0,195.7,168.19Zm2.88,26.6a22.28,22.28,0,0,0,3.58-8.71c.05-.28.51-.62.85-.72a80.27,80.27,0,0,0,17.19-7.13,1.76,1.76,0,0,1,1.41.1c1.6.79,3.13,1.75,4.74,2.5a27.06,27.06,0,0,0,3.41,1.08A85.05,85.05,0,0,1,198.58,194.79Zm34.65-19.25a13.42,13.42,0,0,1-13.33-13.35,13.31,13.31,0,0,1,26.62,0C246.67,169,240.13,175.62,233.23,175.54Zm19.58-16.76a21.51,21.51,0,0,0-3.7-8.48,1.13,1.13,0,0,1,.07-1A80.57,80.57,0,0,0,256.42,132c.08-.31.37-.75.62-.79a21.42,21.42,0,0,0,8.59-3.42C265.72,133.65,258,152.37,252.81,158.78Z"/><path class="cls-2" d="M259.92,49.72c16,19.79,22.83,42.73,21.47,68.13a99.22,99.22,0,0,1-9,37.06,90.7,90.7,0,0,1-37.83,41A103.9,103.9,0,0,1,182.44,210v7.09h.08a105,105,0,0,0,79.64-36.36,103.7,103.7,0,0,0,22.32-41.55c.25-.92.48-1.85.71-2.78a109.88,109.88,0,0,0,2.3-13.14,1.36,1.36,0,0,0,0-.2c0-.28.07-.56.1-.83.09-.87.16-1.73.23-2.59,0-.42.06-.83.08-1.23.16-2.32.25-4.6.39-6.73C287.58,79,275.39,52,250.89,30.87c-17.34-15-37.65-23.18-60.52-25-2.62-.2-5.25-.31-7.85-.31h-.08v6.68h1.29A99.9,99.9,0,0,1,225,21.6h0Q244.8,31,259.92,49.72Z"/><path class="cls-2" d="M182.44,72.77v6.65a31.94,31.94,0,0,1,.09,63.88h-.09V150a38.59,38.59,0,1,0,0-77.18Z"/><path class="cls-3" d="M358,108.56V90.36a5.8,5.8,0,0,1,.49-2.43H341.91a5.32,5.32,0,0,1,.5,2.43v17.39a3.65,3.65,0,0,1-2.23.74q-4.37,0-6.56-4.37t-2.18-12.49a37.2,37.2,0,0,1,.88-8.92,15.52,15.52,0,0,1,2.85-6,10.73,10.73,0,0,1,8.86-4A18,18,0,0,1,356.3,77.8v-10a49.24,49.24,0,0,0-14.64-2.36,39.67,39.67,0,0,0-10.05,1.2,22.57,22.57,0,0,0-8.78,4.65q-8.35,7-8.36,20,0,16.41,12.63,22a31,31,0,0,0,12.31,2.08,52.81,52.81,0,0,0,8.67-.6,99,99,0,0,0,10.37-2.61,10.91,10.91,0,0,1-.42-1.48A17.19,17.19,0,0,1,358,108.56Z"/><path class="cls-3" d="M379.51,64.89a5.1,5.1,0,0,1,.5-2.39h-16.3a5.24,5.24,0,0,1,.49,2.39V112a5.44,5.44,0,0,1-.49,2.4H380a5.77,5.77,0,0,1-.5-2.4Z"/><path class="cls-3" d="M419,78.05q-5-5-13.9-5a23.24,23.24,0,0,0-10.6,2.2,15.78,15.78,0,0,0-6.68,6.86,24.54,24.54,0,0,0-2.65,11.78q0,11.4,6.56,17.07a16,16,0,0,0,5.64,3.21,28.77,28.77,0,0,0,15.22-.07,15.46,15.46,0,0,0,5.7-3.31q6.31-5.82,6.31-16.65Q424.55,83.76,419,78.05Zm-11.24,27.42q-.79,3.16-2.87,3.16c-1.53,0-2.5-1-2.9-3.14A64.08,64.08,0,0,1,401.17,94q0-8.25.79-11.39c.53-2.1,1.49-3.14,2.88-3.14s2.37,1.11,2.89,3.19.78,5.9.78,11.44S408.24,103.37,407.71,105.47Z"/><path class="cls-3" d="M463.32,77.7a12.05,12.05,0,0,0-10-4.69,14.25,14.25,0,0,0-7.87,2.5V64.89A5.24,5.24,0,0,1,446,62.5H429.67a5.71,5.71,0,0,1,.49,2.39V112a4.84,4.84,0,0,1-.49,2.4h7.79l3.53-5.08a11.65,11.65,0,0,0,4.16,4.49,12.45,12.45,0,0,0,6.1,1.29,17.45,17.45,0,0,0,7.09-1.23,13.62,13.62,0,0,0,5.86-5.51q3.53-5.7,3.53-14.95Q467.73,83.28,463.32,77.7Zm-12,26.84c-.51,1.86-1.43,2.79-2.77,2.79s-2.16-1-2.66-2.88a44.45,44.45,0,0,1-.76-10c0-5.08.25-8.57.76-10.49s1.42-2.84,2.76-2.77,2.22,1,2.7,2.91a48.26,48.26,0,0,1,.73,10.28C452.07,99.3,451.81,102.68,451.31,104.54Z"/><path class="cls-3" d="M507,106c-1.13,0-1.69-.69-1.69-2V83.8q0-10.8-15.52-10.79a53,53,0,0,0-15.73,2.43l1.58,7.94a22.09,22.09,0,0,1,4.69-2.65,12.37,12.37,0,0,1,4.31-.7,6.26,6.26,0,0,1,3.89,1.11,3.54,3.54,0,0,1,1.47,3,3.91,3.91,0,0,1-1.18,2.93A9.51,9.51,0,0,1,485,89a56.38,56.38,0,0,0-6.88,2.33,12.93,12.93,0,0,0-3.67,2.54q-3.52,3.38-3.52,9.2a13.16,13.16,0,0,0,3.24,9.21,8,8,0,0,0,3.14,2.24,12.75,12.75,0,0,0,4.41.65,14.93,14.93,0,0,0,5-.7,13.14,13.14,0,0,0,4.09-2.54,10.57,10.57,0,0,0,3.76,2.5,14.82,14.82,0,0,0,5.06.74,16.49,16.49,0,0,0,4.75-.55,22.3,22.3,0,0,0,4.71-2.34V105A3.66,3.66,0,0,1,507,106Zm-17-2.93q0,2.61-2.19,2.61a2.31,2.31,0,0,1-2-1,4.66,4.66,0,0,1-.74-2.77A9.16,9.16,0,0,1,486.39,97,8.89,8.89,0,0,1,490,93.68Z"/><path class="cls-3" d="M528.18,64.89a5.23,5.23,0,0,1,.5-2.39h-16.3a5.36,5.36,0,0,1,.5,2.39V112a5.57,5.57,0,0,1-.5,2.4h16.3a5.93,5.93,0,0,1-.5-2.4Z"/><path class="cls-3" d="M595.59,92.23a12.24,12.24,0,0,0-6-2.93,21.94,21.94,0,0,0,4.23-1.8q3.92-2.53,3.91-9,0-6-3.35-9.1t-9.52-3.17h-25a5.13,5.13,0,0,1,.49,2.4V112a5.85,5.85,0,0,1-.49,2.44H585a14.91,14.91,0,0,0,8.15-2.19q5.4-3.45,5.4-11.36Q598.59,95.23,595.59,92.23ZM576.68,73.15h1.24a3.45,3.45,0,0,1,3.17,1.6,10,10,0,0,1,1,5.1c0,2.66-.3,4.51-.9,5.57A3.32,3.32,0,0,1,578,87h-1.34Zm4.66,33a3.12,3.12,0,0,1-2.89,1.55h-1.77V93.78h1.84a3,3,0,0,1,2.87,1.71,13.53,13.53,0,0,1,.86,5.7A10.14,10.14,0,0,1,581.34,106.13Z"/><path class="cls-3" d="M641.93,94.21a32.12,32.12,0,0,0-1.56-11,15.69,15.69,0,0,0-5.14-7q-4.15-3.31-12-3.31-9.45,0-14.67,5.39-5.87,6.08-5.86,16.44,0,13,10.23,18.13,4.48,2.25,11.71,2.26a34.91,34.91,0,0,0,7.73-.73,39.73,39.73,0,0,0,7.65-2.8l-1.38-8.15a20.88,20.88,0,0,1-5.43,4,12.68,12.68,0,0,1-5.5,1.2,8.62,8.62,0,0,1-4.92-1.41,7.81,7.81,0,0,1-3-4,25.39,25.39,0,0,1-1.13-7.91h23.28Zm-23.1-5.65a22.41,22.41,0,0,1,.88-7,2.75,2.75,0,0,1,2.58-2.12q2.61,0,3.1,4c.17,1.22.3,2.92.39,5.11Z"/><path class="cls-3" d="M680.8,106c-1.12,0-1.69-.69-1.69-2V83.8q0-10.8-15.52-10.79a53,53,0,0,0-15.73,2.43l1.59,7.94a22.09,22.09,0,0,1,4.69-2.65,12.31,12.31,0,0,1,4.3-.7,6.29,6.29,0,0,1,3.9,1.11,3.56,3.56,0,0,1,1.46,3,3.87,3.87,0,0,1-1.18,2.93,9.45,9.45,0,0,1-3.83,1.9,56.69,56.69,0,0,0-6.87,2.33,12.79,12.79,0,0,0-3.67,2.54q-3.53,3.38-3.53,9.2a13.12,13.12,0,0,0,3.25,9.21,8,8,0,0,0,3.14,2.24,12.75,12.75,0,0,0,4.41.65,15,15,0,0,0,5-.7,13.14,13.14,0,0,0,4.09-2.54,10.57,10.57,0,0,0,3.76,2.5,14.74,14.74,0,0,0,5.06.74,16.46,16.46,0,0,0,4.74-.55,21.84,21.84,0,0,0,4.71-2.34V105A3.61,3.61,0,0,1,680.8,106Zm-17-2.93c0,1.74-.73,2.61-2.18,2.61a2.32,2.32,0,0,1-2-1,4.73,4.73,0,0,1-.74-2.77A9.16,9.16,0,0,1,660.17,97a9,9,0,0,1,3.63-3.33Z"/><path class="cls-3" d="M701.79,77.56V74.21H686.41a5.23,5.23,0,0,1,.5,2.39V112a5.84,5.84,0,0,1-.5,2.44h16.3a5.67,5.67,0,0,1-.5-2.44v-22a6.73,6.73,0,0,1,1.5-4.73A5.6,5.6,0,0,1,708,83.59a19.08,19.08,0,0,1,3,.28V73Q703.2,73.11,701.79,77.56Z"/><path class="cls-3" d="M730.47,76.6a5.5,5.5,0,0,1,.49-2.39H714.67a5.06,5.06,0,0,1,.49,2.39V112a5.72,5.72,0,0,1-.49,2.4H731a6.09,6.09,0,0,1-.49-2.4Zm-7.76-13.5q-7.49,0-7.48,4.69t7.55,4.62q7.37,0,7.37-4.87Q730.15,63.1,722.71,63.1Z"/><path class="cls-3" d="M758.76,114.42h16.29a6.33,6.33,0,0,1-.49-2.4V84c0-3.27-.67-5.72-2-7.37q-3-3.63-8.89-3.63a14.09,14.09,0,0,0-10.87,4.55V74.21h-15.3A5.37,5.37,0,0,1,738,76.6V112a5.45,5.45,0,0,1-.49,2.4h16.29a5.58,5.58,0,0,1-.49-2.4V87.4a4.36,4.36,0,0,1,.88-2.89,3,3,0,0,1,2.43-1.06,2.29,2.29,0,0,1,2,.88,5.65,5.65,0,0,1,.6,3V112A5.26,5.26,0,0,1,758.76,114.42Z"/><path class="cls-3" d="M820.62,115a6.83,6.83,0,0,0-2.47-2.48q-3.84-2.22-10.26-2.23a34.56,34.56,0,0,0-5,.32q-2.16.31-10.27,1.91l6.21-3.46a7,7,0,0,1,1.89-.81,26.15,26.15,0,0,1,3.36-.21,16.57,16.57,0,0,0,8.33-2.54q7.72-4.66,7.72-14.46,0-10.62-8.07-15.66a26.57,26.57,0,0,0,3.4-4.59,15.75,15.75,0,0,0,1.29-4.51H804.43c0,.35,0,.61,0,.77a9.61,9.61,0,0,1-2.15,6.31c-1.93-.18-3.26-.28-4-.28a20.47,20.47,0,0,0-8,1.55,15.82,15.82,0,0,0-7.8,6.74q-2.07,3.67-2.08,10.2a18.4,18.4,0,0,0,1.48,8A14.19,14.19,0,0,0,787,105l-6.35,4.76,2.9,10.37a37,37,0,0,1,11.07-1.87,11.52,11.52,0,0,1,5,.92,2.75,2.75,0,0,1,1.89,2.43q0,2.72-6.24,2.72a48.73,48.73,0,0,1-11.71-1.59v1.52q7.23,1.8,11.32,2.45a53.59,53.59,0,0,0,8.36.65q8.14,0,13.3-2.19a8.53,8.53,0,0,0,3.7-2.8,6.62,6.62,0,0,0,1.34-4A6.54,6.54,0,0,0,820.62,115ZM797.43,82.72c.55-1.54,1.48-2.31,2.77-2.31a3.16,3.16,0,0,1,2.91,2.33c.58,1.51.86,4,.86,7.59,0,3.92-.27,6.7-.83,8.32s-1.49,2.43-2.83,2.43a2.69,2.69,0,0,1-2-1,4.84,4.84,0,0,1-1.16-2.52,42.19,42.19,0,0,1-.5-7.16A25.31,25.31,0,0,1,797.43,82.72Z"/><path class="cls-3" d="M853.57,92.58q-2.19-3.24-7.2-4.9-6.14-2-6.67-2.26c-1.41-.7-2.11-1.61-2.11-2.71a2.73,2.73,0,0,1,1.25-2.35,6,6,0,0,1,3.44-.86,12,12,0,0,1,4.62.88,27.78,27.78,0,0,1,5.33,3.17l1.94-8.14A45,45,0,0,0,840.83,73a23.46,23.46,0,0,0-8.22,1.44,14.52,14.52,0,0,0-6.56,4.76,13.69,13.69,0,0,0-2.61,8.36q0,5.66,3.43,8.68a14.72,14.72,0,0,0,3.54,2.29,71.57,71.57,0,0,0,6.83,2.68c2.84,1,4.26,2.32,4.26,3.92a2.84,2.84,0,0,1-1.2,2.36,4.91,4.91,0,0,1-3.06.92,16.16,16.16,0,0,1-8.47-2.61q-1.44-.89-3.81-2.68l-2.15,8.57a42.87,42.87,0,0,0,7.44,2.7,30.89,30.89,0,0,0,7.09.76q8.46,0,13.16-3.57,5.07-3.84,5.08-11.46A13.29,13.29,0,0,0,853.57,92.58Z"/><path class="cls-2" d="M382.15,130.46H365.07v1.29a5.9,5.9,0,0,1,1.43.17,3,3,0,0,1,1,.51,1.7,1.7,0,0,1,.51,1,6.26,6.26,0,0,1,.2,1.67v15.31A5.33,5.33,0,0,1,368,152a1.84,1.84,0,0,1-.6.93,2.69,2.69,0,0,1-1,.48l-1.33.1v1h9.85v-1h-1l-.8-.13-.63-.23-.53-.44a1.58,1.58,0,0,1-.33-.63l-.1-.9v-8.58h3.38a3,3,0,0,1,1.08.23,2.65,2.65,0,0,1,1,.71,3.61,3.61,0,0,1,.72,1.28,6.19,6.19,0,0,1,.28,1.93h1.06v-9.32l-1.06,0a4.69,4.69,0,0,1-.07.88c0,.25-.1.5-.16.74a3.85,3.85,0,0,1-.72,1.28,2.86,2.86,0,0,1-1,.75,3.68,3.68,0,0,1-1.16.2h-3.38v-8l.23-.63.34-.4.43-.24a1.7,1.7,0,0,1,.53-.06h3.37l1.13.06,1,.24.9.36.84.57.87.74.9.93.86,1,.77.77.8-.5Z"/><path class="cls-2" d="M396.91,139.37a1.23,1.23,0,0,0-.39-.56,1.66,1.66,0,0,0-.68-.41,3.56,3.56,0,0,0-1-.12l-.79.1a3.62,3.62,0,0,0-.77.3l-.69.39-.63.46-.63.56-.7.66-.6.56-.36.29v-3.66l-5.17,1.83v.84a3.75,3.75,0,0,1,1,.11,1.28,1.28,0,0,1,.65.37,1.53,1.53,0,0,1,.31.61l.1.93v10l-.13.4-.27.3-.37.17a2.19,2.19,0,0,1-.58.06h-.7v1h7.26v-1H391l-.54-.06-.41-.17-.23-.3a1,1,0,0,1-.17-.4v-9.42l2.09-1.79.2-.16.2-.17.16-.07.2,0,.3.1.43.3.13.13.17.1.3.2.3.17a1.67,1.67,0,0,0,.53.16h.69L396,142a1.82,1.82,0,0,0,.56-.51,2.34,2.34,0,0,0,.35-.66,2.21,2.21,0,0,0,.12-.74Z"/><path class="cls-2" d="M403.88,153.41l-.56-.17L403,153l-.33-.33-.3-.49v-15l-5.17,2.09v.8a2.58,2.58,0,0,1,1.72.51,1.88,1.88,0,0,1,.6,1.51v10.12a1.2,1.2,0,0,1-.19.51.88.88,0,0,1-.36.31l-.41.2-.54.17-.82.1v1h7.52v-1Zm-1.56-22.89-.37-.4-.48-.29a.85.85,0,0,0-.54-.17h-.53l-.82.13a1.87,1.87,0,0,0-.73.41,1.76,1.76,0,0,0-.48.66,1.93,1.93,0,0,0-.16.87,4.1,4.1,0,0,0,.16.91,2.08,2.08,0,0,0,.51.63,1.79,1.79,0,0,0,.72.42,2.63,2.63,0,0,0,.8.12h.53l.54-.2.48-.3.37-.4a1.28,1.28,0,0,0,.25-.53,4,4,0,0,0,.05-.66v-.67Z"/><path class="cls-2" d="M419.67,150.42a8.13,8.13,0,0,1-2.36,2.14,5.13,5.13,0,0,1-2.49.68,4.17,4.17,0,0,1-.71-.06c-.23-.05-.47-.1-.71-.17a5.63,5.63,0,0,1-2.49-1.79,5.47,5.47,0,0,1-.46-.69c-.12-.2-.24-.45-.39-.76a8.26,8.26,0,0,1-.36-.94,7.59,7.59,0,0,1-.23-.91,6.55,6.55,0,0,1-.12-.93q0-.5,0-1l.06-1.46.27-1.32.4-1.12.53-.9.6-.73a2.19,2.19,0,0,1,.69-.46l.7-.3.73-.1a5.59,5.59,0,0,1,.93.19,2.18,2.18,0,0,1,.71.39,3.25,3.25,0,0,1,.65.75,4.46,4.46,0,0,1,.46.93l.33.8.47.53a1.63,1.63,0,0,0,.59.33l.63.1.7-.13a2.81,2.81,0,0,0,.6-.37,1.59,1.59,0,0,0,.4-.56,1.42,1.42,0,0,0,.16-.7,3.09,3.09,0,0,0-.36-1,4,4,0,0,0-.63-.83l-1-.7a4.57,4.57,0,0,0-1.06-.53c-.37-.13-.59-.21-.66-.22l-.7-.11-1.42-.1a7.9,7.9,0,0,0-1.78.2,8.53,8.53,0,0,0-1.77.58,6.74,6.74,0,0,0-1.56.94,7.63,7.63,0,0,0-1.29,1.36,7.19,7.19,0,0,0-1,1.79,9.71,9.71,0,0,0-.55,2.23c0,.06-.07.19-.13.39v.53l0,.87a10.54,10.54,0,0,0,.07,1.21,7.93,7.93,0,0,0,.2,1,9.83,9.83,0,0,0,.76,1.93,12.7,12.7,0,0,0,1.2,1.59,8.38,8.38,0,0,0,1.51,1.13,6.09,6.09,0,0,0,1.64.68,10.88,10.88,0,0,0,1.09.21q.3,0,.9,0a7.35,7.35,0,0,0,2.09-.31,9.63,9.63,0,0,0,1.85-.75,7.86,7.86,0,0,0,1.75-1.46,9.09,9.09,0,0,0,1.34-2Z"/><path class="cls-2" d="M431.31,151.75a7.45,7.45,0,0,1-1.59,1.2,3.13,3.13,0,0,1-1.4.39l-.69-.13a1.91,1.91,0,0,1-.57-.53,2.33,2.33,0,0,1-.33-.83l-.1-1.19V139.78h4.68v-1.3h-4.68v-5.7l-1.29,0a4.46,4.46,0,0,1-.12,1.08,7.89,7.89,0,0,1-.31,1,5.92,5.92,0,0,1-1.05,1.72,8,8,0,0,1-1.34,1.23,4,4,0,0,1-1.59.66v1.3h2.58v11.44a6.61,6.61,0,0,0,.24,1.79,4.26,4.26,0,0,0,.69,1.2,3,3,0,0,0,1.05.68,3.79,3.79,0,0,0,1.31.21,6.47,6.47,0,0,0,1.36-.16l1.39-.5a6.64,6.64,0,0,0,1.31-.88,5.41,5.41,0,0,0,.95-1.08Z"/><path class="cls-2" d="M438,153.41l-.57-.17-.36-.2-.33-.33-.3-.49v-15l-5.14,2.07,0,0v.8a2.59,2.59,0,0,1,1.73.51,1.88,1.88,0,0,1,.6,1.51v10.12a1.2,1.2,0,0,1-.19.51.88.88,0,0,1-.36.31l-.41.2-.55.17-.82.1v1h7.53v-1Zm-1.56-22.89-.37-.4-.48-.29a.85.85,0,0,0-.54-.17h-.53l-.82.13a2,2,0,0,0-.74.41,1.85,1.85,0,0,0-.47.66,1.93,1.93,0,0,0-.16.87,4.1,4.1,0,0,0,.16.91,2.08,2.08,0,0,0,.51.63,1.79,1.79,0,0,0,.72.42,2.63,2.63,0,0,0,.8.12h.53l.54-.2.48-.3.37-.4a1.42,1.42,0,0,0,.25-.53,4,4,0,0,0,.05-.66v-.67Z"/><path class="cls-2" d="M455.34,145.81c0-.22-.07-.64-.17-1.26a9.47,9.47,0,0,0-.41-1.65,9.86,9.86,0,0,0-.73-1.43,7.48,7.48,0,0,0-.93-1.21,7.32,7.32,0,0,0-1.06-.91,4.14,4.14,0,0,0-1.26-.63,5.85,5.85,0,0,0-1.31-.42,7.76,7.76,0,0,0-1.41-.11,7.36,7.36,0,0,0-1,.06c-.28.05-.66.13-1.11.25a6.66,6.66,0,0,0-1.51.65,7.07,7.07,0,0,0-2.78,2.85,8,8,0,0,0-.8,2.12,10.4,10.4,0,0,0-.22,1c0,.27-.05.73-.05,1.39l.24,2,.53,1.76a8.64,8.64,0,0,0,.73,1.46l1,1.23a7.06,7.06,0,0,0,1.13,1,5,5,0,0,0,1.08.59c.29.11.57.2.82.27s.53.13.82.18a6,6,0,0,0,1.16.08A7.07,7.07,0,0,0,449,155c.3-.05.59-.1.88-.17a11.55,11.55,0,0,0,1.11-.4,3.92,3.92,0,0,0,.58-.26,7.56,7.56,0,0,0,1.55-1.28,8,8,0,0,0,1.17-1.71,8.44,8.44,0,0,0,.8-2.14,10.7,10.7,0,0,0,.26-2.47C455.35,146.28,455.35,146,455.34,145.81Zm-3.34.73-.13,2.13a9.11,9.11,0,0,1-.4,1.7,7.19,7.19,0,0,1-.45,1.07c-.14.27-.23.43-.25.48a3.8,3.8,0,0,1-.83,1.06,2.79,2.79,0,0,1-1,.66,2.63,2.63,0,0,1-2.49-.26,4.72,4.72,0,0,1-1.3-1.5,7.88,7.88,0,0,1-.87-2.25,13,13,0,0,1-.37-3.12v-.36a12.31,12.31,0,0,1,.32-2.94,6.73,6.73,0,0,1,.92-2.17,4,4,0,0,1,1.3-1.3,2.67,2.67,0,0,1,1.53-.46,3.06,3.06,0,0,1,1.06.2,2.42,2.42,0,0,1,.9.56,3.71,3.71,0,0,1,.85,1,6.57,6.57,0,0,1,.62,1.33,5.06,5.06,0,0,1,.4,1.36c0,.4.1.76.16,1.1Z"/><path class="cls-2" d="M473.21,153.34l-.58-.2-.41-.23-.34-.43-.24-.66v-9.44l-.13-1.36a4.31,4.31,0,0,0-.42-1.14,3.5,3.5,0,0,0-.68-.89,2.47,2.47,0,0,0-.83-.54,3.41,3.41,0,0,0-1-.35,4.92,4.92,0,0,0-1.09-.11,5.76,5.76,0,0,0-1.51.2,8.24,8.24,0,0,0-1.51.54,4.71,4.71,0,0,0-1.23.82,7.15,7.15,0,0,0-1,1v-2.86l-5.17,2.06v.83l.75,0,.55.1a.76.76,0,0,1,.37.18,1.17,1.17,0,0,1,.28.35l.1.5v9.72l-.13.9a1.2,1.2,0,0,1-.35.58,2.43,2.43,0,0,1-.79.37,3.61,3.61,0,0,1-1.05.18v1h7.53v-1H464l-.4-.17h-.17l-.17-.06-.4-.24-.31-.29-.2-.4V141.93l1-.89,1.08-.7a3.15,3.15,0,0,1,1-.43,2.85,2.85,0,0,1,1-.17,2.09,2.09,0,0,1,1,.25,2.18,2.18,0,0,1,.77.77,3.79,3.79,0,0,1,.5,1.24,9.33,9.33,0,0,1,.16,2v8.16l-.2.59a1.48,1.48,0,0,1-.31.37l-.41.2-.61.06-.82.11v1.09H474v-1Z"/><path class="cls-2" d="M509,133.47l.23-.83.4-.49.53-.3a3.81,3.81,0,0,1,.76-.17l1.1-.2v-1h-7.27l-7.25,18.87-7-18.87h-7.25v1.06l1,.06.76.14a1.86,1.86,0,0,1,.62.35,1.75,1.75,0,0,1,.41.54,2.15,2.15,0,0,1,.2.83l.1,1.16v15.59a6.29,6.29,0,0,1-.1,1.26l-.23.9a2.17,2.17,0,0,1-.4.56l-.53.3-.76.2-1.1.1v1H491v-1l-.89-.17-.7-.26a2.15,2.15,0,0,1-.53-.43l-.4-.63-.23-.9-.1-1.25V133l7.8,21.5h1.55l8-21.76v17.91a3.72,3.72,0,0,1-.2,1.29,1.66,1.66,0,0,1-.55.8,3.76,3.76,0,0,1-1,.5,4.15,4.15,0,0,1-1.4.23v1H512v-1l-1.12-.17-.81-.23-.58-.36-.37-.57-.24-.72V134.63Z"/><path class="cls-2" d="M529.09,152a3.43,3.43,0,0,1-.82.65,1.44,1.44,0,0,1-.68.18.77.77,0,0,1-.63-.36,2,2,0,0,1-.19-1v-9.32a3.51,3.51,0,0,0-.2-1.22A3.23,3.23,0,0,0,526,140a4,4,0,0,0-.88-.83,4.15,4.15,0,0,0-1.08-.5l-1.26-.3a6.54,6.54,0,0,0-1.36-.13l-1.49.13-1.46.33-1.3.57a8,8,0,0,0-1,.73,3.31,3.31,0,0,0-.43.46l-.33.43a2.55,2.55,0,0,0-.33,1l.13.63a3,3,0,0,0,.48.58,1.84,1.84,0,0,0,.63.37,2.41,2.41,0,0,0,.68.11l.67-.13a2.07,2.07,0,0,0,.61-.42,1.9,1.9,0,0,0,.43-.69,5,5,0,0,0,.28-.95,3.21,3.21,0,0,1,.3-.86,4.46,4.46,0,0,1,.63-.68,2.12,2.12,0,0,1,.77-.43,2.81,2.81,0,0,1,.82-.12,3.28,3.28,0,0,1,.9.22,2.38,2.38,0,0,1,.65.45,1.4,1.4,0,0,1,.41.79,3.1,3.1,0,0,1,.17,1.1v3.38a23.51,23.51,0,0,0-2.87.45,14.5,14.5,0,0,0-2.24.68l-1,.53c-.29.15-.54.3-.74.43a7.07,7.07,0,0,0-1.2,1.16l-.43.63-.29.6-.2.63v.6a4.84,4.84,0,0,0,.28,1.67,3.31,3.31,0,0,0,.87,1.33,4.19,4.19,0,0,0,1.19.78,4.25,4.25,0,0,0,.86.26,8.6,8.6,0,0,0,.86,0h.6l.66-.1.62-.16.63-.21,1.26-.74,1.19-1,.33,1.05a3.45,3.45,0,0,0,.63.73,2.08,2.08,0,0,0,.65.36,2.37,2.37,0,0,0,.78.11h.49l.5-.1.47-.2.49-.2.87-.77a4,4,0,0,0,.76-1Zm-5.44-.49-.86.76a3.15,3.15,0,0,1-.89.56l-.86.33-.79.1a4.94,4.94,0,0,1-.86-.16,2.36,2.36,0,0,1-.69-.53,2.56,2.56,0,0,1-.46-.73,3.38,3.38,0,0,1-.21-.65,2.06,2.06,0,0,1,0-.48,3.1,3.1,0,0,1,.42-1.56,4.22,4.22,0,0,1,1.21-1.29,6.64,6.64,0,0,1,1.8-.93,12.82,12.82,0,0,1,1.22-.42q.52-.15,1-.24Z"/><path class="cls-2" d="M546,153.34l-.58-.2-.41-.23-.34-.43-.24-.66v-9.44l-.14-1.36a4,4,0,0,0-.41-1.14,3.75,3.75,0,0,0-.68-.89,2.47,2.47,0,0,0-.83-.54,3.65,3.65,0,0,0-1-.35,5,5,0,0,0-1.1-.11,5.74,5.74,0,0,0-1.5.2,8,8,0,0,0-1.51.54,4.71,4.71,0,0,0-1.23.82,6.18,6.18,0,0,0-1,1v-2.86l-5.18,2.06v.83l.76,0,.55.1a.8.8,0,0,1,.37.18,1.17,1.17,0,0,1,.28.35l.1.5v9.72l-.13.9a1.28,1.28,0,0,1-.35.58,2.5,2.5,0,0,1-.8.37,3.5,3.5,0,0,1-1,.18v1h7.53v-1h-.44l-.41-.17h-.16l-.17-.06-.41-.24-.3-.29-.2-.4V141.93l1-.89,1.08-.7a3.15,3.15,0,0,1,1-.43,2.75,2.75,0,0,1,1-.17,2.1,2.1,0,0,1,1,.25,2.26,2.26,0,0,1,.77.77,3.78,3.78,0,0,1,.49,1.24,9.23,9.23,0,0,1,.17,2v8.16l-.21.59a1.27,1.27,0,0,1-.3.37l-.41.2-.62.06-.82.11v1.09h7.53v-1Z"/><path class="cls-2" d="M562.72,152a3.62,3.62,0,0,1-.81.65,1.5,1.5,0,0,1-.68.18.74.74,0,0,1-.63-.36,1.9,1.9,0,0,1-.2-1v-9.32a3.51,3.51,0,0,0-.2-1.22,3,3,0,0,0-.53-.93,4,4,0,0,0-.88-.83,4.15,4.15,0,0,0-1.08-.5l-1.26-.3a6.47,6.47,0,0,0-1.36-.13l-1.49.13-1.46.33-1.3.57a7.26,7.26,0,0,0-1,.73,2.43,2.43,0,0,0-.43.46l-.34.43a2.9,2.9,0,0,0-.33,1l.13.63a2.74,2.74,0,0,0,.49.58,1.67,1.67,0,0,0,.63.37,2.3,2.3,0,0,0,.68.11l.66-.13a1.94,1.94,0,0,0,.61-.42,1.9,1.9,0,0,0,.43-.69,5,5,0,0,0,.29-.95,2.9,2.9,0,0,1,.29-.86,4.46,4.46,0,0,1,.63-.68,2.12,2.12,0,0,1,.77-.43,2.82,2.82,0,0,1,.83-.12,3.29,3.29,0,0,1,.89.22,2.38,2.38,0,0,1,.65.45,1.4,1.4,0,0,1,.41.79,3.1,3.1,0,0,1,.17,1.1v3.38a23.82,23.82,0,0,0-2.87.45,14.85,14.85,0,0,0-2.24.68l-1,.53a7.64,7.64,0,0,0-.75.43,6.6,6.6,0,0,0-1.19,1.16l-.43.63-.3.6-.2.63v.6a4.84,4.84,0,0,0,.28,1.67,3.42,3.42,0,0,0,.87,1.33,4.19,4.19,0,0,0,1.19.78,4.45,4.45,0,0,0,.86.26c.18,0,.47,0,.86,0h.6l.66-.1.63-.16.62-.21,1.26-.74,1.19-1,.33,1.05a3.45,3.45,0,0,0,.63.73,2.19,2.19,0,0,0,.65.36,2.37,2.37,0,0,0,.78.11h.5l.49-.1.47-.2.49-.2.87-.77a4,4,0,0,0,.76-1Zm-5.44-.49-.86.76a3.15,3.15,0,0,1-.89.56l-.86.33-.79.1a4.61,4.61,0,0,1-.85-.16,2.28,2.28,0,0,1-.7-.53,2.8,2.8,0,0,1-.46-.73,3.38,3.38,0,0,1-.21-.65,2.06,2.06,0,0,1,0-.48,3,3,0,0,1,.43-1.56,4.06,4.06,0,0,1,1.2-1.29,7,7,0,0,1,1.8-.93c.46-.18.87-.32,1.22-.42s.69-.18,1-.24Z"/><path class="cls-2" d="M580.76,139.33a1.08,1.08,0,0,0-.3-.55.91.91,0,0,0-.46-.38,1.76,1.76,0,0,0-.66-.12l-.9.07a3.54,3.54,0,0,0-.76.3l-.8.56-.93.87-.59-.5-.7-.47-.76-.36-.83-.27-.22-.06-.36-.09a3.2,3.2,0,0,0-.62-.05h-.59a7,7,0,0,0-2.67.53,6.56,6.56,0,0,0-2.24,1.56,5.25,5.25,0,0,0-.73.87l-.5,1-.3,1.06-.1,1,.1,1.09.3,1,.43.93.63.76a3.14,3.14,0,0,0,.7.53,3.75,3.75,0,0,0,.76.3l-1.26.43a5.06,5.06,0,0,0-.94.58,2.37,2.37,0,0,0-.65.72,1.46,1.46,0,0,0-.2.69,1.8,1.8,0,0,0,.23.7,4.65,4.65,0,0,0,.67.66,2.45,2.45,0,0,0,.51.33l.58.3a8.76,8.76,0,0,0,1.59.5l-1.42.3-1.3.43a4.39,4.39,0,0,0-1.09.5l-.83.66-.53.73a1.63,1.63,0,0,0-.17.73,1.7,1.7,0,0,0,.45,1.1,4.19,4.19,0,0,0,1.28,1,6.69,6.69,0,0,0,1,.45c.36.12.81.24,1.34.36s1.05.23,1.54.31a8.48,8.48,0,0,0,1.51.14h3.32l1.63-.2a8,8,0,0,0,1.5-.47,5.73,5.73,0,0,0,1.25-.7,3,3,0,0,0,.93-1.07,3.5,3.5,0,0,0,.46-1.43,3.13,3.13,0,0,0-.21-1.12,2.7,2.7,0,0,0-.62-1l-1-.74a5.9,5.9,0,0,0-1.23-.63l-1.32-.47a4,4,0,0,0-.62-.23c-.23-.07-.41-.11-.54-.14l-1.7-.4-2.91-.73a2.54,2.54,0,0,1-1-.47.75.75,0,0,1-.3-.56l.06-.24.24-.2a.43.43,0,0,1,.33-.13l.43-.07.36,0,.44.06.83.17.89,0,1.26-.1,1.23-.3a7.21,7.21,0,0,0,1.14-.48,4.1,4.1,0,0,0,1-.71l.9-.79a2.82,2.82,0,0,0,.36-.46c.07-.11.19-.32.35-.63a3.29,3.29,0,0,0,.32-.76c0-.2.1-.41.16-.63v-.66a4.5,4.5,0,0,0-.1-1,4.33,4.33,0,0,0-.26-.88,7.21,7.21,0,0,0-1.1-1.85l.2-.15.2-.11.17,0,.2,0,.49.13.54.41.33.44.36.27.33.21h.34l.46-.14a1.15,1.15,0,0,0,.4-.39l.26-.6.1-.65Zm-11,14.74.57.2.63.17.67.17.73.2,1.33.4,1,.34.75.3a2.94,2.94,0,0,1,.59.37,1,1,0,0,1,.37.42,1.19,1.19,0,0,1,.11.52,1.36,1.36,0,0,1-.34.89,3.31,3.31,0,0,1-.93.73,4.86,4.86,0,0,1-1.23.43,8.19,8.19,0,0,1-1.11.17q-.47,0-.93,0l-1.69-.13-1.83-.3-1-.34-.43-.23a2,2,0,0,1-.37-.24,1.72,1.72,0,0,1-.51-.55,1.4,1.4,0,0,1-.15-.66,3,3,0,0,1,.23-.84,2.54,2.54,0,0,1,.37-.43,3.44,3.44,0,0,1,.4-.37,4.47,4.47,0,0,1,1.16-.71A8,8,0,0,1,569.73,154.07Zm4.93-9.42-.13,1.24a5.68,5.68,0,0,1-.3,1.08,6,6,0,0,1-.55.85,3.14,3.14,0,0,1-.61.6,2,2,0,0,1-.76.35,2.58,2.58,0,0,1-.8.13l-.9-.13-.86-.43a2.59,2.59,0,0,1-.73-.65l-.6-.92a4.22,4.22,0,0,1-.36-1.14,5.79,5.79,0,0,1-.13-1.34l.1-1.38.36-1.14.57-.93a2.41,2.41,0,0,1,.67-.68,3,3,0,0,1,.82-.4,2.82,2.82,0,0,1,.83-.12l.86.14.8.4a4.9,4.9,0,0,1,.69.68,2.8,2.8,0,0,1,.53.91,3.42,3.42,0,0,1,.38,1.13,7.21,7.21,0,0,1,.12,1.35Z"/><path class="cls-2" d="M594.66,151.39l-.76.76-.83.6a4.16,4.16,0,0,1-.9.43l-.46.16-.47.1-.46.1h-.46a4.16,4.16,0,0,1-1.35-.2,4.46,4.46,0,0,1-1.18-.58,4.27,4.27,0,0,1-1-1,7.11,7.11,0,0,1-.81-1.46,8.14,8.14,0,0,1-.48-1.58,12.22,12.22,0,0,1-.19-1.34c0-.38,0-.75,0-1.13v-.46l11.14,0a8,8,0,0,0-.31-2.24,7.47,7.47,0,0,0-.81-1.89c-.2-.33-.4-.61-.58-.86a4.36,4.36,0,0,0-.58-.62,5.59,5.59,0,0,0-1.48-1.06,8.22,8.22,0,0,0-1.54-.58,8.77,8.77,0,0,0-1-.21c-.2,0-.5,0-.9,0a6.07,6.07,0,0,0-1,.1,6.91,6.91,0,0,0-.93.24,7.55,7.55,0,0,0-1.79.92,11.77,11.77,0,0,0-1.58,1.46,8.5,8.5,0,0,0-1.21,1.79,7.74,7.74,0,0,0-.46,1,7.33,7.33,0,0,0-.32,1.07,7.42,7.42,0,0,0-.18,1q0,.33,0,1a9.75,9.75,0,0,0,.26,2.29,8.44,8.44,0,0,0,.9,2,8.82,8.82,0,0,0,1.26,1.62,7.63,7.63,0,0,0,1.72,1.25,7.4,7.4,0,0,0,1.83.67,5.26,5.26,0,0,0,1,.24c.22,0,.56,0,1,0a6,6,0,0,0,1-.07,6.38,6.38,0,0,0,.9-.2,7.27,7.27,0,0,0,1.82-.69,10.46,10.46,0,0,0,1.6-1.31,6.51,6.51,0,0,0,1.19-1.78l-.76-.5A6.43,6.43,0,0,1,594.66,151.39ZM585.52,143c.1-.33.2-.62.28-.86a6.21,6.21,0,0,1,.9-1.57,3.71,3.71,0,0,1,1.14-1,2.84,2.84,0,0,1,1.31-.31,2.65,2.65,0,0,1,.63.05l.6.14a2,2,0,0,1,.76.46,2.65,2.65,0,0,1,.8.8,3.69,3.69,0,0,1,.6,1,3.56,3.56,0,0,1,.36,1.18,4.82,4.82,0,0,1,.13,1.19l-7.79,0C585.33,143.76,585.42,143.37,585.52,143Z"/><path class="cls-2" d="M624.11,153.41l-.43-.1h-.36l-.43-.23-.34-.37a1.86,1.86,0,0,1-.2-.45,3.34,3.34,0,0,1-.06-.74V142.2l-.13-1.39a4.24,4.24,0,0,0-.42-1.23,5.54,5.54,0,0,0-.61-.93,2.14,2.14,0,0,0-.8-.6,3.54,3.54,0,0,0-1-.41,4.43,4.43,0,0,0-1.07-.12,5.89,5.89,0,0,0-1.45.21,8.09,8.09,0,0,0-1.59.6,7.81,7.81,0,0,0-1.49,1,9.47,9.47,0,0,0-1.31,1.3,5,5,0,0,0-.63-1.35,4.25,4.25,0,0,0-.93-1,4,4,0,0,0-1.15-.58,3.93,3.93,0,0,0-1.21-.2h-.86l-.46.1-.4.13-.47.17-.43.23-.46.27-.47.3-.92.73-.93.86v-3.13l-5.18,2.09v.8l.93.07a1.51,1.51,0,0,1,.63.23.74.74,0,0,1,.38.4,1.31,1.31,0,0,1,.12.56v10.42a3.3,3.3,0,0,1-.17.8,1.69,1.69,0,0,1-.51.58,2.17,2.17,0,0,1-.66.3,4.92,4.92,0,0,1-1,.08v1h7.53v-1l-.44-.1-.41-.1H604l-.41-.23-.3-.3-.2-.4V141.63a5.41,5.41,0,0,1,.58-.59l.48-.43,1-.73a3.42,3.42,0,0,1,1.07-.43,3,3,0,0,1,1-.17,2,2,0,0,1,1,.27,2,2,0,0,1,.89.72,2.85,2.85,0,0,1,.48,1.07c.07.37.12.7.15,1s0,.56,0,.85v8.59l-.13.83a1.25,1.25,0,0,1-.45.55,2.14,2.14,0,0,1-.71.3,3.81,3.81,0,0,1-.6.08h-.43v1h7.53v-1l-.48-.1h-.41l-.34-.1h-.24l-.41-.17-.27-.3-.21-.43V141.9l.57-.54.56-.52A8.34,8.34,0,0,1,615,140a5,5,0,0,1,1-.46,3.33,3.33,0,0,1,1-.15,2.37,2.37,0,0,1,1,.23,1.86,1.86,0,0,1,.75.66,2.09,2.09,0,0,1,.46,1.1,3.17,3.17,0,0,1,.13.73,7,7,0,0,1,0,.8v8.59a4.23,4.23,0,0,1-.19.94,1.47,1.47,0,0,1-.43.6,1.69,1.69,0,0,1-.71.38l-1,.1v1h7.53v-1A1.14,1.14,0,0,0,624.11,153.41Z"/><path class="cls-2" d="M638.67,151.39l-.76.76-.83.6a3.87,3.87,0,0,1-.89.43l-.47.16-.46.1-.47.1h-.46a4.05,4.05,0,0,1-1.34-.2,4.32,4.32,0,0,1-1.18-.58,4.13,4.13,0,0,1-1-1,7.11,7.11,0,0,1-.81-1.46,8.14,8.14,0,0,1-.48-1.58,10,10,0,0,1-.18-1.34c0-.38,0-.75,0-1.13v-.46l11.15,0a8,8,0,0,0-.32-2.24,7.47,7.47,0,0,0-.81-1.89,9.82,9.82,0,0,0-.58-.86,4.36,4.36,0,0,0-.58-.62,5.29,5.29,0,0,0-1.48-1.06,8,8,0,0,0-1.54-.58,8.77,8.77,0,0,0-1-.21,8.89,8.89,0,0,0-.89,0,6.19,6.19,0,0,0-1,.1,6.71,6.71,0,0,0-2.72,1.16,12.42,12.42,0,0,0-1.58,1.46,8.9,8.9,0,0,0-1.21,1.79,7.74,7.74,0,0,0-.46,1,8.83,8.83,0,0,0-.32,1.07,7.42,7.42,0,0,0-.18,1q0,.33,0,1a10.31,10.31,0,0,0,.26,2.29,9.29,9.29,0,0,0,.9,2,8.82,8.82,0,0,0,1.26,1.62,7.86,7.86,0,0,0,1.72,1.25,7.4,7.4,0,0,0,1.83.67,5.46,5.46,0,0,0,1,.24c.22,0,.56,0,1,0a6.17,6.17,0,0,0,1-.07,6.57,6.57,0,0,0,.89-.2,7.49,7.49,0,0,0,1.83-.69,10.88,10.88,0,0,0,1.59-1.31,6.51,6.51,0,0,0,1.19-1.78l-.76-.5A6.43,6.43,0,0,1,638.67,151.39ZM629.54,143c.1-.33.19-.62.28-.86a5.91,5.91,0,0,1,.89-1.57,3.86,3.86,0,0,1,1.15-1,2.81,2.81,0,0,1,1.31-.31,2.76,2.76,0,0,1,.63.05l.6.14a2,2,0,0,1,.76.46,2.62,2.62,0,0,1,.79.8,3.46,3.46,0,0,1,.6,1,3.56,3.56,0,0,1,.37,1.18,5.35,5.35,0,0,1,.13,1.19l-7.8,0A12,12,0,0,1,629.54,143Z"/><path class="cls-2" d="M658,153.34l-.58-.2-.41-.23-.34-.43-.24-.66v-9.44l-.13-1.36a4.68,4.68,0,0,0-.41-1.14,3.79,3.79,0,0,0-.69-.89,2.53,2.53,0,0,0-.82-.54,3.6,3.6,0,0,0-1-.35,4.86,4.86,0,0,0-1.09-.11,5.76,5.76,0,0,0-1.51.2,8.24,8.24,0,0,0-1.51.54,4.88,4.88,0,0,0-1.23.82,7.15,7.15,0,0,0-1,1v-2.86L642,139.77v.83l.75,0,.55.1a.83.83,0,0,1,.38.18,1.31,1.31,0,0,1,.27.35l.1.5v9.72l-.13.9a1.2,1.2,0,0,1-.35.58,2.43,2.43,0,0,1-.79.37,3.61,3.61,0,0,1-1,.18v1h7.53v-1h-.44l-.4-.17h-.17l-.17-.06-.4-.24-.31-.29-.2-.4V141.93l1-.89,1.08-.7a3.15,3.15,0,0,1,1-.43,2.85,2.85,0,0,1,1-.17,2.09,2.09,0,0,1,1,.25,2.18,2.18,0,0,1,.77.77,3.79,3.79,0,0,1,.5,1.24,9.33,9.33,0,0,1,.16,2v8.16l-.2.59a1.29,1.29,0,0,1-.31.37l-.41.2-.61.06-.82.11v1.09h7.53v-1Z"/><path class="cls-2" d="M669.92,151.75a7.45,7.45,0,0,1-1.59,1.2,3.13,3.13,0,0,1-1.4.39l-.69-.13a1.91,1.91,0,0,1-.57-.53,2.33,2.33,0,0,1-.33-.83l-.1-1.19V139.78h4.68v-1.3h-4.68v-5.7l-1.29,0a4.46,4.46,0,0,1-.12,1.08,7.89,7.89,0,0,1-.31,1,5.92,5.92,0,0,1-1,1.72,8,8,0,0,1-1.34,1.23,4,4,0,0,1-1.59.66v1.3h2.58v11.44a6.61,6.61,0,0,0,.24,1.79,4.26,4.26,0,0,0,.69,1.2,3,3,0,0,0,1.05.68,3.79,3.79,0,0,0,1.31.21,6.55,6.55,0,0,0,1.36-.16l1.39-.5a6.64,6.64,0,0,0,1.31-.88,5.41,5.41,0,0,0,.95-1.08Z"/><path class="cls-2" d="M695.19,146.91a4.84,4.84,0,0,0-.3-1c-.13-.35-.22-.57-.26-.67a3.6,3.6,0,0,0-.2-.35l-.66-1a5.51,5.51,0,0,0-.83-.84l-1-.7a9.21,9.21,0,0,0-1.46-.66l-2.16-.77-2.19-.76-1.52-.57a7,7,0,0,1-1.06-.58,4.42,4.42,0,0,1-.55-.44l-.48-.51a3.74,3.74,0,0,1-.72-1.22,4.92,4.92,0,0,1-.21-1.51l.16-1.07a3.24,3.24,0,0,1,.47-1,2.75,2.75,0,0,1,.7-.8,5.06,5.06,0,0,1,.82-.51,2.75,2.75,0,0,1,.78-.28,6.76,6.76,0,0,0,.68-.17h.6a5.25,5.25,0,0,1,.67,0l.63.14,1.32.4c.33.18.58.32.75.43l.55.35a7.87,7.87,0,0,1,1.29,1c.29.27.51.5.68.69a6.2,6.2,0,0,1,.51.69,10,10,0,0,1,1,1.62l1-.49-2.32-5.67a2.71,2.71,0,0,1-.7.51,1.7,1.7,0,0,1-.76.18l-.63-.1-.9-.32-.93-.35-.79-.31a1.81,1.81,0,0,0-.8-.15h-1l-.46,0a8,8,0,0,0-1,.17,6.73,6.73,0,0,0-1.29.41,5.32,5.32,0,0,0-1.09.67,6.39,6.39,0,0,0-1,.91,6,6,0,0,0-.69.95,5.22,5.22,0,0,0-.38.73q-.13.3-.24.6l-.23.66-.13.6-.1.66,0,.63.13,1.33.43,1.26a4.94,4.94,0,0,0,.7,1.13l1,1a3.17,3.17,0,0,0,.51.31,7.22,7.22,0,0,0,.78.35c.44.2.84.35,1.18.47s.67.21,1,.29l2.29.77,1.69.6a7.37,7.37,0,0,1,2.62,1.69,3.36,3.36,0,0,1,1,1.33,3.54,3.54,0,0,1,.4,1.69l-.17.93a4.55,4.55,0,0,1-.43,1l-.73,1a6,6,0,0,1-1,.8,4.46,4.46,0,0,1-.6.33,5.2,5.2,0,0,1-.74.26,4.36,4.36,0,0,1-1.21.14l-1.2-.14-1.26-.43a12.2,12.2,0,0,1-1.36-.73l-1.46-1.1L680.8,150c-.31-.33-.59-.65-.83-.95s-.5-.62-.77-1l-1,.53L680.5,155a2.58,2.58,0,0,1,1-.74,3.06,3.06,0,0,1,1.18-.22l.53,0,.53.1.59.14.8.2.8.21.73.17.66.1h.7a5.44,5.44,0,0,0,1.16-.1l.89-.19a6.51,6.51,0,0,0,1.79-.74,9.85,9.85,0,0,0,1.51-1.21,6,6,0,0,0,1-1.4,8.07,8.07,0,0,0,.65-1.62,6.68,6.68,0,0,0,.23-1.76Z"/><path class="cls-2" d="M711.56,145.81c0-.22-.07-.64-.17-1.26a8,8,0,0,0-.41-1.65,9,9,0,0,0-.73-1.43,7.48,7.48,0,0,0-.93-1.21,7.32,7.32,0,0,0-1.06-.91,4.14,4.14,0,0,0-1.26-.63,5.69,5.69,0,0,0-1.31-.42,7.76,7.76,0,0,0-1.41-.11,7.36,7.36,0,0,0-1,.06c-.28.05-.65.13-1.11.25a6.86,6.86,0,0,0-1.51.65,7.38,7.38,0,0,0-1.54,1.17,7.62,7.62,0,0,0-1.24,1.68,8,8,0,0,0-.8,2.12,7.82,7.82,0,0,0-.21,1,11.43,11.43,0,0,0,0,1.39l.23,2,.53,1.76a8.64,8.64,0,0,0,.73,1.46l1,1.23a7.06,7.06,0,0,0,1.13,1,5,5,0,0,0,1.08.59c.3.11.57.2.83.27a8.14,8.14,0,0,0,.81.18,6,6,0,0,0,1.16.08,7.23,7.23,0,0,0,1-.06c.29-.05.59-.1.87-.17.47-.15.84-.28,1.12-.4a5.25,5.25,0,0,0,.58-.26,7.49,7.49,0,0,0,1.54-1.28,8.42,8.42,0,0,0,1.18-1.71,8.81,8.81,0,0,0,.79-2.14,10.68,10.68,0,0,0,.27-2.47C711.58,146.28,711.57,146,711.56,145.81Zm-3.33.73-.14,2.13a9.11,9.11,0,0,1-.4,1.7,7.19,7.19,0,0,1-.45,1.07l-.25.48a3.8,3.8,0,0,1-.83,1.06,2.86,2.86,0,0,1-1,.66,2.65,2.65,0,0,1-2.5-.26,4.85,4.85,0,0,1-1.3-1.5,7.88,7.88,0,0,1-.87-2.25,13,13,0,0,1-.36-3.12v-.36a12.34,12.34,0,0,1,.31-2.94,6.73,6.73,0,0,1,.92-2.17,4,4,0,0,1,1.3-1.3,2.67,2.67,0,0,1,1.53-.46,3.16,3.16,0,0,1,1.07.2,2.59,2.59,0,0,1,.9.56,3.87,3.87,0,0,1,.84,1,6.57,6.57,0,0,1,.62,1.33,4.72,4.72,0,0,1,.4,1.36,10.63,10.63,0,0,0,.17,1.1Z"/><path class="cls-2" d="M720.34,153.38l-.58-.17-.41-.2-.3-.33-.24-.5v-23l-5.71,2.06v1.09a7.53,7.53,0,0,1,1.46.12,1.78,1.78,0,0,1,.86.35,1.16,1.16,0,0,1,.37.6,2.34,2.34,0,0,1,.16,1v17.15l-.13.89a1.21,1.21,0,0,1-.36.58,2.61,2.61,0,0,1-.73.35,3.62,3.62,0,0,1-1.1.2v1h7.5v-1Z"/><path class="cls-2" d="M737.38,153.48l-.7-.24a1.11,1.11,0,0,1-.41-.48,2.16,2.16,0,0,1-.12-.81v-14l-4.94,2.1v.79l.93.3a2.35,2.35,0,0,1,.7.42,1.41,1.41,0,0,1,.35.51,2.6,2.6,0,0,1,.11.83V151l-1.06,1a6.1,6.1,0,0,1-1,.7,4,4,0,0,1-1,.41,3.42,3.42,0,0,1-1,.15,3,3,0,0,1-1.12-.23,3.07,3.07,0,0,1-.92-.75,2.88,2.88,0,0,1-.58-1,4.64,4.64,0,0,1-.16-1.36V137.94l-4.94,2.1v.79l1,.3a1.3,1.3,0,0,1,.63.33,3.15,3.15,0,0,1,.32.7,3.25,3.25,0,0,1,.12,1v7a8.61,8.61,0,0,0,.06,1.11,7.84,7.84,0,0,0,.2.91,4.19,4.19,0,0,0,.9,1.55,3.77,3.77,0,0,0,1.34,1,4.28,4.28,0,0,0,1.67.31,6.31,6.31,0,0,0,2.69-.59,11.75,11.75,0,0,0,2.72-2v2.06h5.18v-1Z"/><path class="cls-2" d="M749.85,151.75a7.21,7.21,0,0,1-1.59,1.2,3.1,3.1,0,0,1-1.39.39l-.7-.13a1.77,1.77,0,0,1-.56-.53,2,2,0,0,1-.33-.83l-.1-1.19V139.78h4.67v-1.3h-4.67v-5.7l-1.3,0a5.05,5.05,0,0,1-.11,1.08,8,8,0,0,1-.32,1,5.69,5.69,0,0,1-1,1.72,8,8,0,0,1-1.35,1.23,3.89,3.89,0,0,1-1.59.66v1.3h2.59v11.44a6.61,6.61,0,0,0,.23,1.79,4.27,4.27,0,0,0,.7,1.2,2.93,2.93,0,0,0,1,.68,3.83,3.83,0,0,0,1.31.21,6.47,6.47,0,0,0,1.36-.16l1.39-.5a6.64,6.64,0,0,0,1.31-.88,5.41,5.41,0,0,0,1-1.08Z"/><path class="cls-2" d="M756.55,153.41l-.56-.17-.37-.2-.33-.33-.3-.49v-15l-5.14,2.08h0v.8a2.56,2.56,0,0,1,1.72.51,1.88,1.88,0,0,1,.6,1.51v10.12a1.08,1.08,0,0,1-.19.51.88.88,0,0,1-.36.31l-.41.2-.54.17-.82.1v1h7.53v-1ZM755,130.52l-.37-.4-.48-.29a.81.81,0,0,0-.54-.17h-.52l-.82.13a1.91,1.91,0,0,0-.74.41,1.76,1.76,0,0,0-.48.66,1.93,1.93,0,0,0-.16.87,4.79,4.79,0,0,0,.16.91,2.08,2.08,0,0,0,.51.63,1.79,1.79,0,0,0,.72.42,2.64,2.64,0,0,0,.81.12h.52l.54-.2.48-.3.37-.4a1.17,1.17,0,0,0,.25-.53,4,4,0,0,0,0-.66v-.67Z"/><path class="cls-2" d="M773.88,145.81c0-.22-.06-.64-.16-1.26a8.62,8.62,0,0,0-.42-1.65,8.19,8.19,0,0,0-.73-1.43,7.48,7.48,0,0,0-.93-1.21,7.32,7.32,0,0,0-1.06-.91,4.14,4.14,0,0,0-1.26-.63,5.69,5.69,0,0,0-1.31-.42,7.76,7.76,0,0,0-1.41-.11,7.2,7.2,0,0,0-1,.06c-.29.05-.66.13-1.11.25a6.48,6.48,0,0,0-1.51.65,7.18,7.18,0,0,0-1.55,1.17A7.62,7.62,0,0,0,760.2,142a8.39,8.39,0,0,0-.8,2.12,7.82,7.82,0,0,0-.21,1c0,.27-.05.73-.05,1.39l.23,2,.53,1.76a9.46,9.46,0,0,0,.73,1.46l1,1.23a7.06,7.06,0,0,0,1.13,1,5,5,0,0,0,1.08.59c.3.11.57.2.83.27a8.14,8.14,0,0,0,.81.18,6.11,6.11,0,0,0,1.16.08,7.23,7.23,0,0,0,.95-.06c.3-.05.59-.1.88-.17.46-.15.83-.28,1.11-.4a4.49,4.49,0,0,0,.58-.26,7.49,7.49,0,0,0,1.54-1.28,8.73,8.73,0,0,0,2-3.85,10.68,10.68,0,0,0,.27-2.47C773.9,146.28,773.89,146,773.88,145.81Zm-3.33.73-.13,2.13a11,11,0,0,1-.4,1.7,10.21,10.21,0,0,1-.45,1.07c-.15.27-.23.43-.25.48a4,4,0,0,1-.84,1.06,2.86,2.86,0,0,1-1,.66,2.65,2.65,0,0,1-2.5-.26,4.85,4.85,0,0,1-1.3-1.5,7.88,7.88,0,0,1-.87-2.25,13,13,0,0,1-.36-3.12v-.36a11.82,11.82,0,0,1,.32-2.94,6.73,6.73,0,0,1,.91-2.17,4,4,0,0,1,1.3-1.3,2.72,2.72,0,0,1,1.53-.46,3.11,3.11,0,0,1,1.07.2,2.59,2.59,0,0,1,.9.56,4.12,4.12,0,0,1,.85,1,7.16,7.16,0,0,1,.61,1.33,4.72,4.72,0,0,1,.4,1.36c0,.4.1.76.17,1.1Z"/><path class="cls-2" d="M791.75,153.34l-.58-.2-.41-.23-.34-.43-.24-.66v-9.44l-.13-1.36a4.68,4.68,0,0,0-.41-1.14A4,4,0,0,0,789,139a2.57,2.57,0,0,0-.83-.54,3.65,3.65,0,0,0-1-.35,5,5,0,0,0-1.1-.11,5.76,5.76,0,0,0-1.51.2,8.24,8.24,0,0,0-1.51.54,4.82,4.82,0,0,0-1.22.82,6.69,6.69,0,0,0-1,1v-2.86l-5.17,2.06v.83l.75,0,.55.1a.83.83,0,0,1,.38.18,1.31,1.31,0,0,1,.27.35l.11.5v9.72l-.14.9a1.27,1.27,0,0,1-.34.58,2.5,2.5,0,0,1-.8.37,3.61,3.61,0,0,1-1.05.18v1H783v-1h-.43l-.41-.17h-.17l-.17-.06-.4-.24-.3-.29-.21-.4V141.93l1-.89,1.07-.7a3.15,3.15,0,0,1,1-.43,2.85,2.85,0,0,1,1-.17,2.06,2.06,0,0,1,1,.25,2.2,2.2,0,0,1,.78.77,3.78,3.78,0,0,1,.49,1.24,9.23,9.23,0,0,1,.17,2v8.16l-.21.59a1.15,1.15,0,0,1-.31.37l-.41.2-.61.06-.82.11v1.09h7.53v-1Z"/></svg>